<?xml version="1.0" encoding="utf-8"?>
<!-- Generator: Adobe Illustrator 24.3.0, SVG Export Plug-In . SVG Version: 6.00 Build 0)  -->
<svg version="1.1" id="Layer_1" xmlns="http://www.w3.org/2000/svg" xmlns:xlink="http://www.w3.org/1999/xlink" x="0px" y="0px"
	 viewBox="0 0 172.2 49.9" style="enable-background:new 0 0 172.2 49.9;" xml:space="preserve">
<style type="text/css">
	.st0{fill:#FFFFFF;}
	.st1{fill:#FFB900;}
	.st2{fill:#0056AD;}
	.st3{fill:#111111;}
	.st4{fill:#FFAF00;}
	.st5{fill:#2457AA;}
</style>
<path class="st0" d="M14.9,34.1c0.3-1.1,0.2-2.4-0.4-3.4c-1.1-2.1-2-3.8-1.4-6.2c0.6-2.7,2.4-6,4.4-6.7c2.6-0.9,15.7,3.7,13.5,12.5
	c-0.6,2.3-1.3,4.7-3.3,6.2c-2,1.6-2.4,4.5-3.1,6.8c-0.1,0.3-0.2,0.6-0.5,0.8c-0.6,0.5-2.1,0.1-2.8,0.1c-1.3-0.2-2.5-0.5-3.7-1
	c-1.7-0.4-3.1-1.4-4.2-2.7c-0.3-0.4-0.4-0.8-0.4-1.3c0-0.3,0.1-0.7,0.3-1C13.9,36.9,14.5,35.5,14.9,34.1z"/>
<path class="st1" d="M23.1,44.8c-0.4,0-0.8,0-1.2-0.1c-0.2,0-0.4-0.1-0.7-0.1c-1.1-0.1-2.1-0.4-3.1-0.8l-0.7-0.3
	c-1.8-0.5-3.3-1.5-4.5-2.9c-0.3-0.5-0.5-1-0.5-1.6c0-0.4,0.2-0.8,0.3-1.2c0.2-0.5,0.4-0.9,0.6-1.4c0.4-0.8,0.7-1.7,1-2.5l0,0
	c0.3-1,0.2-2.1-0.3-3c-1.2-2.2-2-4-1.5-6.6c0.7-2.9,2.5-6.3,4.7-7.1c1.8-0.6,7.4,0.9,11.1,4.2c2.8,2.6,3.9,5.6,3,8.9
	c-0.4,2.2-1.1,4.9-3.4,6.5c-1.4,1.1-2,3-2.5,4.9c-0.2,0.6-0.3,1.2-0.5,1.7c-0.1,0.4-0.3,0.8-0.6,1.1C24,44.7,23.6,44.9,23.1,44.8z
	 M15.4,34.2c-0.3,1-0.7,1.9-1.1,2.8c-0.2,0.4-0.4,0.9-0.6,1.4c-0.1,0.3-0.2,0.6-0.3,0.8c0,0.4,0.1,0.7,0.4,1c1,1.2,2.4,2.1,4,2.5
	l0.8,0.3c0.9,0.4,1.8,0.6,2.8,0.8c0.3,0,0.5,0,0.8,0.1c0.5,0.1,1.5,0.2,1.7,0c0.2-0.2,0.3-0.4,0.3-0.6c0.2-0.5,0.3-1.1,0.5-1.7
	c0.6-2,1.1-4,2.8-5.4s2.5-3.4,3.1-5.9c0.9-3.6-1-6.3-2.8-7.9c-3.4-3.1-8.7-4.5-10-4c-1.8,0.6-3.5,3.7-4.1,6.4
	c-0.5,2.2,0.2,3.8,1.4,5.9c0.6,1.2,0.8,2.5,0.4,3.8L15.4,34.2z"/>
<path class="st1" d="M44.5,40.5c-0.3-0.9-3-4.8-3.8-5c-0.4-0.1-1.5,0.5-3,1.3c-1.9,1-1,1.6,2.4,7.4c-10,0.2-8.6-9.4-9.3-10.4
	c0,0-16.8-17.7-21.2-18.6c-1.7-0.4-6.6,0.9-8.8-3.9c-1.2-2.6,0.4-6.7,0.9-6.8s2.2,2.8,2.5,3.2c0.7,1.2,1.2,1.7,2.4,1.2
	c1-0.4,2-1,2.7-1.8C10.7,5.1,4.7,0.6,7,0.5c3.4-0.1,6.4,2,7.5,5.1c2.3,6.4-1.1,5.1,7.2,11.8c6.8,5.5,13,12.8,15.9,12.4
	c1.4-0.2,2.8-0.1,4.1,0.4C49.5,33.1,44.7,41.1,44.5,40.5z"/>
<path class="st1" d="M39.8,44.8c-8.2,0-8.9-6.6-9.2-9.5c0-0.4-0.1-0.8-0.2-1.2C29,32.5,13.6,16.5,9.6,15.7c-0.4-0.1-0.9-0.1-1.4-0.1
	c-2.2,0-5.9,0-7.8-4.1c-1-2.3-0.2-5.5,0.5-6.8c0.2-0.4,0.5-0.7,0.8-0.7C2.7,4,4.5,7,4.8,7.6c0.7,1.2,1,1.3,1.8,1
	C7.6,8.3,8.4,7.7,9.1,7c0.4-0.9-0.8-2.6-1.8-3.8s-1.5-2-1.2-2.7C6.2,0.2,6.6,0,7,0c3.6-0.1,6.8,2.1,8,5.5c0.5,1.4,0.8,2.8,1,4.3
	c0.3,2.1,0.4,2.8,6,7.3c2.2,1.8,4.4,3.8,6.4,5.7c3.8,3.5,7.4,6.8,9.1,6.6c1.5-0.3,2.9-0.1,4.3,0.4c4.7,1.8,5,5.3,4.7,7.2
	c-0.2,1.7-1.2,4-1.9,4.1c-0.2,0-0.5-0.1-0.6-0.4l0,0c-0.3-0.8-2.8-4.4-3.4-4.7c-0.6,0.3-1.2,0.5-1.8,0.9l-0.8,0.4
	c-0.4,0.2-0.6,0.4-0.7,0.5c-0.1,0.5,0.6,1.7,1.8,3.7c0.4,0.7,0.9,1.5,1.5,2.5c0.1,0.2,0.1,0.3,0,0.5c-0.1,0.2-0.2,0.3-0.4,0.3
	L39.8,44.8z M1.9,5.2C1.4,6,0.4,9.1,1.4,11.1C3,14.6,6,14.6,8.3,14.6c0.5,0,1,0,1.6,0.1c4.5,0.9,21.4,18.6,21.5,18.8
	c0.2,0.5,0.3,1.1,0.3,1.6c0.3,2.9,0.8,8.3,7.7,8.6c-0.4-0.6-0.7-1.2-1-1.7c-1.5-2.5-2.2-3.6-1.9-4.5c0.2-0.5,0.7-1,1.2-1.2l0.8-0.4
	c1.5-0.8,2.1-1,2.5-0.9c0.8,0.2,2.9,3.1,3.8,4.6c0.8-1.5,1.1-3.1,0.9-4.8c-0.4-1.9-1.7-3.3-4-4.2c-1.2-0.4-2.5-0.6-3.8-0.3
	c-2.2,0.4-5.6-2.8-9.9-6.8c-2-1.9-4.2-3.9-6.4-5.7c-5.6-4.6-6-5.5-6.3-7.9c-0.2-1.4-0.5-2.8-1-4.1c-1.1-3-3.9-5-7.1-4.8H7
	c0.3,0.6,0.7,1.1,1.1,1.6c1.2,1.5,2.6,3.4,1.9,4.9c-0.5,1-2.9,2-2.9,2C5.4,10.2,4.7,9.2,4,8C3.4,7,2.7,6.1,1.9,5.2z"/>
<path class="st1" d="M12.5,13.9c1.6-0.7,3-1.6,3.1-3.7"/>
<path class="st1" d="M12.5,14.4c-0.2,0-0.4-0.1-0.5-0.3c-0.1-0.3,0-0.5,0.3-0.6c1.6-0.6,2.7-1.4,2.8-3.3c0-0.3,0.2-0.5,0.5-0.5
	c0,0,0,0,0,0c0.3,0,0.5,0.3,0.5,0.5c-0.2,2.5-1.8,3.5-3.4,4.2C12.6,14.4,12.6,14.4,12.5,14.4z"/>
<path class="st2" d="M31,34.4c0-1.3,0.8-2.5,2.1-3"/>
<path class="st1" d="M31,34.9c-0.3,0-0.5-0.2-0.5-0.5c0-1.6,1-3,2.5-3.5c0.3-0.1,0.5,0.1,0.6,0.4s-0.1,0.5-0.4,0.6
	c-1,0.4-1.7,1.4-1.7,2.5C31.6,34.7,31.3,34.9,31,34.9C31.1,34.9,31.1,34.9,31,34.9L31,34.9z"/>
<path class="st0" d="M13.4,23.4c0.5-1.2,1.4-3.9,2.7-4.1s4,1.2,5.3,2.2c2.4,1.9-0.2,3.5-3.6,2.5c-1.9-0.6,1.4,1.1,1.9,1.6
	c1.1,1.2,1.7,3.8,0.4,6.8"/>
<path class="st1" d="M20,32.9c-0.1,0-0.1,0-0.2,0c-0.3-0.1-0.4-0.4-0.2-0.7c1.2-2.8,0.7-5.2-0.3-6.3c-0.4-0.3-0.8-0.6-1.3-0.9
	c-1.2-0.7-1.5-0.9-1.3-1.4s0.7-0.3,1.2-0.2c2,0.6,3.6,0.2,3.9-0.4s-0.4-1-0.7-1.2c-1.4-1.1-4-2.3-4.9-2.1s-1.8,2.5-2.2,3.6l-0.1,0.3
	c-0.1,0.2-0.4,0.3-0.7,0.2c-0.2-0.1-0.3-0.3-0.3-0.6l0.1-0.3c0.7-2,1.6-3.9,2.9-4.2c1.5-0.3,4.5,1.4,5.7,2.3c1.4,1.1,1.2,2.1,1,2.5
	c-0.4,0.9-1.7,1.3-3.2,1.2c0.2,0.1,0.4,0.3,0.6,0.5c1.3,1.4,1.9,4.2,0.5,7.4C20.5,32.8,20.2,32.9,20,32.9z"/>
<path class="st0" d="M22.1,13.5c-1.3,1-3.1,5.5-2.1,6.8s2.5,0.6,3.4-0.1c-0.1,0.7-0.2,1.4-0.2,2c0,1.7,1.4,2.3,3.3,0
	c-0.9,1.1-0.1,5.6,2.6,2.7c-0.9,2.5,0.5,3.2,1.7,2c2.5-2.5,1.7-1.9,1.1-0.5c0.7,0.6,1.1,1,1.7,1.4c2.8-3,1.1-6-0.7-6.2
	c0.3-3.7-2.4-4.1-3.2-3.1c0.3-1.3-0.6-2.5-1.9-2.8c-0.7-0.1-1.4,0-1.9,0.5C26.9,14.2,23.8,12.2,22.1,13.5z"/>
<path class="st0" d="M33.6,28.5c-0.1,0-0.2,0-0.3-0.1c-0.5-0.4-0.9-0.7-1.4-1.2L31.6,27l-0.4,0.4c-0.5,0.7-1.4,0.9-2.2,0.5
	c-0.5-0.4-0.7-1-0.6-1.6c-0.6,0.3-1.3,0.3-1.8-0.2c-0.6-0.6-0.9-1.4-0.9-2.3c-0.5,0.4-1.2,0.6-1.8,0.4c-0.7-0.4-1.2-1.1-1.1-1.9
	c0-0.4,0-0.7,0.1-1.1c-0.6,0.3-1.2,0.4-1.8,0.3c-0.6-0.1-1.1-0.4-1.4-0.9c-1.2-1.7,0.9-6.4,2.2-7.5l0,0c1.1-0.8,2.7-0.7,3.7,0.2
	c0.6,0.5,1,1.2,1.1,2c1.5-0.4,3.1,0.5,3.6,2.1c0,0.1,0.1,0.2,0.1,0.3c0.5-0.1,1-0.1,1.5,0.1c0.6,0.2,1.8,1,1.7,3.5
	c0.9,0.3,1.6,1,1.9,1.9c0.3,0.8,0.7,2.8-1.3,5C33.9,28.4,33.7,28.5,33.6,28.5z M32.6,26.5c0.4,0.3,0.7,0.6,1,0.8
	c0.9-1,1.3-2.4,0.8-3.7c-0.2-0.7-0.8-1.2-1.5-1.4c-0.3,0-0.5-0.3-0.4-0.5c0,0,0,0,0,0c0.2-2.1-0.7-2.8-1.1-2.9
	c-0.4-0.2-0.9-0.1-1.2,0.2c-0.2,0.2-0.5,0.2-0.7,0c-0.1-0.1-0.2-0.3-0.2-0.5c0.2-1-0.4-2-1.5-2.2c-0.5-0.1-1.1,0-1.5,0.4
	c-0.2,0.2-0.4,0.2-0.6,0c-0.2-0.1-0.2-0.4-0.1-0.6c0.3-0.7,0.1-1.5-0.6-1.9c-0.7-0.6-1.7-0.7-2.5-0.2c-1.2,1-2.8,5.1-2,6.1
	c0.2,0.3,0.4,0.5,0.8,0.5c0.7,0,1.4-0.2,2-0.7c0.2-0.2,0.5-0.1,0.7,0.1C24,20,24,20.2,24,20.3L24,20.9c-0.1,0.5-0.1,0.9-0.1,1.4
	c0,0.5,0.1,0.9,0.4,1s1-0.1,2-1.3l0,0c0.2-0.2,0.5-0.2,0.7-0.1c0,0,0,0,0,0c0.2,0.2,0.2,0.5,0.1,0.7c0,0,0,0,0,0l0,0
	c-0.4,0.9-0.3,1.9,0.3,2.7c0.4,0.4,1.1-0.1,1.6-0.6c0.2-0.2,0.4-0.2,0.6-0.1c0.2,0.1,0.3,0.4,0.2,0.6c-0.4,1-0.3,1.7,0,1.8
	s0.5,0,0.9-0.4l1.2-1.1c0.7-0.7,0.9-0.9,1.2-0.6s0.2,0.6,0,0.9S32.6,26.2,32.6,26.5L32.6,26.5z"/>
<path class="st1" d="M23.4,20.2c0.6-1.5,1.4-2.8,2.5-4"/>
<path class="st0" d="M23.4,20.7c-0.1,0-0.1,0-0.2,0c-0.2-0.1-0.4-0.4-0.3-0.6c0,0,0-0.1,0-0.1c0.6-1.5,1.5-2.9,2.5-4.1
	c0.2-0.2,0.5-0.2,0.7,0c0.2,0.2,0.2,0.5,0,0.7c-1,1.2-1.8,2.4-2.4,3.8C23.8,20.6,23.6,20.7,23.4,20.7z"/>
<path class="st1" d="M26.5,22.3c0.9-1.3,2-2.6,3.1-3.7"/>
<path class="st0" d="M26.5,22.8c-0.1,0-0.2,0-0.3-0.1c-0.2-0.2-0.3-0.5-0.1-0.7c0.9-1.4,2-2.6,3.2-3.8c0.2-0.2,0.5-0.2,0.7,0
	s0.2,0.5,0,0.7c-1.1,1.1-2.2,2.3-3.1,3.6C26.8,22.7,26.7,22.8,26.5,22.8z"/>
<path class="st1" d="M29.1,25c1-1.3,2.3-2.4,3.7-3.3"/>
<path class="st0" d="M29.1,25.5c-0.1,0-0.2,0-0.3-0.1c-0.2-0.2-0.2-0.5-0.1-0.7c1.1-1.4,2.4-2.5,3.9-3.4c0.2-0.1,0.5,0,0.7,0.2
	c0.1,0.2,0,0.5-0.2,0.6c-1.4,0.8-2.6,1.9-3.6,3.2C29.4,25.5,29.3,25.5,29.1,25.5z"/>
<path class="st1" d="M24.9,42.9c4.5-0.4,5.7-2.2,6.2-1c0.3,0.7,0.5,1.5,0.5,2.3c-0.2,0.4-1.2,0.8-1.8,0.8c-2.1,0.2,0,2.8-0.8,3.6
	c-0.2,0.2-0.6,0.3-1.7,0.5c-1.8,0.3-1-2.7-2.9-3.1c-3.2-0.7-1.8,2.7-3.3,3.3c-0.6,0.2-1.3-0.3-2-0.4c-0.9-0.1-0.7,0-0.8-3.4
	c-0.2-0.2-1.9-1.2-2.7-0.7s-1.2,3.5-4,1c-1.4-1.3,2.7-2.7-0.6-4.5c-0.8-0.5-1.1-0.4-1.7,0c-1.8,1.2-1.8,1.2-2,1.2s-1.3-1-1.6-1.5
	c-1-2.2,1.8-1.8,1.7-3.5c-0.2-0.8-0.6-1.5-1.1-2.1c-1-0.6-2.5,1-3.4,0.3c-0.4-0.3-1.3-2-0.6-2.8s2.4-0.5,2.7-1.6
	c0.1-0.5-0.4-2.5-1.5-2.8c-0.7-0.2-2.4,0.6-2.5-1.2c-0.2-3.5,3.2-1.5,3.9-3.1c0.3-0.8,0.1-1.7-0.4-2.3c-0.7-0.7-1.8-0.7-2.1-1
	s-0.1-1.7,0.1-2.1c0.5-1.1,1.3-1,2.4-0.5c2.8,1.2,1.2-2.4,3.9-1.2c3,1.3,0.5,0.6-0.7,6.3C5.9,34.3,14.6,43.8,24.9,42.9z"/>
<path class="st1" d="M20.8,49.9c-0.3,0-0.7-0.1-1-0.2c-0.2-0.1-0.4-0.2-0.6-0.2C18,49.3,18,48.9,18,46.9v-1.1
	c-0.4-0.3-1.5-0.8-2-0.5c-0.2,0.2-0.4,0.4-0.5,0.6c-0.3,0.7-0.9,1.2-1.7,1.4c-0.9,0-1.8-0.4-2.4-1.1c-0.9-0.8-0.3-1.7,0.1-2.3
	c0.3-0.4,0.5-0.8,0.4-1.2s-0.4-0.6-1-1s-0.7-0.3-1.1,0L9,42.3C8,43,7.9,43,7.6,43c-0.6,0-1.8-1.2-2.1-1.8c-0.5-0.8-0.3-2,0.6-2.5
	c0.1-0.1,0.2-0.1,0.3-0.2c0.6-0.4,0.8-0.5,0.8-1c-0.2-0.6-0.5-1.2-0.9-1.7c-0.3-0.2-0.8,0-1.3,0.2c-0.7,0.4-1.5,0.4-2.2,0
	c-0.6-0.6-0.9-1.3-1-2.2c-0.1-0.5,0-0.9,0.3-1.3c0.4-0.4,1-0.7,1.5-0.8c0.7-0.2,1-0.3,1-0.6s-0.4-2-1.1-2.2c-0.2,0-0.3,0-0.5,0
	c-0.7,0-2.2,0.1-2.3-1.7c-0.2-2.6,1.5-2.7,2.6-2.8c0.8-0.1,1.2-0.2,1.3-0.5c0.2-0.6,0.1-1.3-0.3-1.8c-0.4-0.3-0.8-0.5-1.3-0.6
	c-0.3,0-0.6-0.2-0.9-0.4c-0.7-0.7-0.1-2.4,0-2.7c0.8-1.8,2.3-1.1,3-0.8c1,0.4,1.1,0.2,1.3-0.4s0.8-1.6,2.6-0.8
	c1.1,0.5,1.5,0.7,1.7,1.2s-0.1,0.8-0.4,1.3c-0.8,1.3-1.4,2.8-1.7,4.4c-1.1,5,0.3,10.1,3.7,13.9c3.2,3.6,7.8,5.4,12.6,5
	c1.5-0.1,3-0.5,4.5-1.1c0.9-0.3,1.8-0.7,2.3,0.3c0,0,0.8,2,0.6,2.7s-1.7,1.1-2.2,1.1c-0.1,0-0.4,0-0.4,0.2s0,0.8,0.1,1.2
	c0.2,0.7,0.4,1.5-0.2,2.1c-0.3,0.3-0.7,0.4-1.5,0.5l-0.5,0.1c-1.3,0.2-1.7-0.8-2-1.6s-0.5-1.3-1.1-1.5c-1.5-0.3-1.6,0.3-1.8,1.3
	c-0.2,0.7-0.4,1.6-1.2,1.9C21.1,49.8,20.9,49.8,20.8,49.9z M19,48.4h0.2c0.3,0,0.7,0.1,1,0.2c0.3,0.1,0.5,0.2,0.8,0.2
	c0.3-0.1,0.4-0.5,0.6-1.2c0.2-1,0.6-2.6,3-2.1c1,0.3,1.7,1.1,1.9,2.1c0.3,0.9,0.4,1,0.9,1l0.5-0.1c0.6-0.1,0.9-0.2,1-0.2
	s0-0.8-0.1-1.2c-0.3-0.6-0.2-1.4,0.1-2c0.3-0.4,0.7-0.6,1.2-0.6c0.5-0.1,0.9-0.3,1.3-0.6c-0.1-0.7-0.3-1.3-0.6-1.9c0,0,0-0.1,0-0.1
	c-0.3,0.1-0.6,0.2-0.9,0.3c-1.5,0.6-3.1,1-4.7,1.2l0,0c-5.1,0.4-10-1.6-13.4-5.4c-3.6-4-5.1-9.5-4-14.8c0.3-1.7,0.9-3.3,1.8-4.7
	c0.1-0.2,0.2-0.4,0.3-0.5c-0.1-0.1-0.8-0.4-1.1-0.5c-0.9-0.4-1-0.2-1.3,0.4s-0.8,1.6-2.6,0.8C3.5,18.2,3.3,18.4,3,19
	c-0.2,0.5-0.3,1-0.2,1.6l0.4,0.1c0.6,0.1,1.2,0.4,1.7,0.9c0.7,0.8,0.9,1.9,0.6,2.9c-0.4,1-1.4,1.1-2.2,1.1c-1.1,0.1-1.8,0.2-1.7,1.8
	c0,0.8,0.4,0.8,1.3,0.8c0.3,0,0.5,0,0.8,0c1.4,0.3,2,2.7,1.9,3.3c-0.2,1-1.1,1.2-1.8,1.4c-0.4,0.1-0.7,0.2-1,0.5
	c-0.4,0.5,0.3,1.9,0.5,2.1s0.6,0,1.2-0.2c0.7-0.4,1.4-0.4,2.1-0.1c0.7,0.6,1.2,1.5,1.4,2.5c0,0.8-0.5,1.6-1.2,1.9
	C6.2,39.8,6,40,6.4,40.8c0.3,0.5,0.7,0.9,1.2,1.2l0.8-0.5l0.9-0.6c0.6-0.5,1.6-0.5,2.2,0c0.7,0.3,1.2,0.9,1.5,1.6
	c0.1,0.7-0.1,1.4-0.6,2c-0.5,0.7-0.5,0.9-0.3,1.1c0.7,0.6,1.2,0.9,1.6,0.9s0.7-0.5,0.9-1c0.2-0.4,0.5-0.7,0.8-1
	c1.1-0.7,3.1,0.5,3.3,0.8c0.1,0.1,0.1,0.2,0.1,0.3c0,0.5,0,1,0,1.3C18.9,47.4,18.9,47.9,19,48.4z M24.9,42.9L24.9,42.9z"/>
<path class="st1" d="M43.5,28.4c3-0.4,3.4,0.1,2.8-2.6c-0.2-1.1-2.9,0-3.5-2.1c-0.2-0.6-0.5-0.7-0.5-1.3c0.2-1.3,2.2-0.9,2.8-1.8
	c0.4-1,0-2.1-0.9-2.7c-1.1-0.4-2.3,1.8-3.6,0c-2.2-3,1.3-2.4,1.2-4.6c-1.8-1.8-1.7-1.8-1.9-1.8c-0.5-0.1-1.8,0.9-2.2,1.2
	s-0.7,0.4-1.2,0.1c-0.7-0.6-1-0.7-1.2-1c-0.7-1.1,1-2.4,0.5-3.6c-0.2-0.5-1.7-1.7-2.3-1.4c-0.2,0.1-0.3,0.2-0.4,0.4
	c-1.9,2.7-1,2.3-3.7,1.5C28,8.1,30.2,5,28.1,4.4c-3.6-1-1.3,1.8-3.4,3.4c-3.1,0.2-2.4-0.1-3.6-3.2c-0.1-0.3-0.2-0.4-0.5-0.3
	c-0.9,0.1-2,0.1-2.5,0.8s0.1,1.7,0.2,2.4c0.2,1-0.5,1-0.6,1.3s0.1,0.7,1.4,2.6c4.3-1.7,13.5,0.3,17.6,5.6c4.5,5.9,2.4,9.4,3.5,10.4
	c0.4,0.3,1.2,0.1,1.7,0.2S43.3,28.4,43.5,28.4z"/>
<path class="st1" d="M43.5,28.9c-0.3,0-0.5-0.2-1.1-0.6c-0.2-0.1-0.5-0.4-0.6-0.4c-0.2,0-0.4,0-0.5,0c-0.4,0-0.9-0.1-1.3-0.3
	c-0.6-0.5-0.6-1.2-0.6-2.2c0-1.8-0.1-4.4-3-8.2c-4-5.2-13.1-6.9-17-5.4c-0.2,0.1-0.5,0-0.6-0.2c-0.3-0.4-0.5-0.8-0.7-1.1
	c-0.8-1.2-1-1.6-0.7-2.1c0.1-0.1,0.2-0.2,0.4-0.3C17.9,8.1,18,8,18,7.6c0-0.2-0.1-0.4-0.2-0.6c-0.3-0.7-0.3-1.5,0-2.2
	c0.5-0.8,1.6-0.9,2.5-1h0.3c0.5-0.1,0.9,0.2,1,0.7c0.2,0.6,0.4,1.1,0.5,1.6c0.4,1.3,0.4,1.4,2.4,1.3c0.5-0.5,0.8-1.1,0.8-1.8
	c0-0.6,0.2-1.1,0.7-1.5c0.7-0.3,1.5-0.3,2.3,0c1.5,0.4,1.4,1.9,1.3,2.8s-0.1,1.3,0.2,1.4l1.1,0.4c0.2,0.1,0.5,0.2,0.8,0.2
	C31.8,8.5,32,8.3,32.2,8c0.2-0.3,0.4-0.7,0.8-1.1c0.1-0.2,0.4-0.4,0.6-0.6c0.3-0.1,0.7-0.1,1,0c0.8,0.3,1.5,0.9,2,1.7
	c0.2,0.7,0.1,1.5-0.3,2.2c-0.3,0.6-0.5,1-0.3,1.4c0.2,0.3,0.4,0.5,0.7,0.6l0.3,0.2c0.2,0.1,0.2,0.1,0.2,0.1s0.1,0,0.3-0.2
	c0.1-0.1,1.8-1.5,2.6-1.3c0.3,0.1,0.3,0.1,1.3,1.1l0.8,0.9c0.1,0.1,0.1,0.2,0.1,0.3c0,0.9-0.5,1.7-1.2,2.1c-0.7,0.6-1,0.8,0,2.2
	c0.5,0.7,0.8,0.6,1.6,0.1c0.5-0.3,1.1-0.5,1.7-0.4c0.6,0.3,1.1,0.9,1.3,1.6c0.3,0.6,0.2,1.3-0.1,1.9c-0.4,0.5-1,0.8-1.7,0.9
	c-0.8,0.2-1,0.3-1.1,0.7c0,0.2,0,0.3,0.1,0.5c0.1,0.2,0.2,0.4,0.3,0.7c0.2,0.8,0.9,1,1.8,1.1c0.7,0.1,1.5,0.2,1.7,1
	c0.2,1.2,0.4,1.9,0,2.5s-1,0.5-2,0.6l-1.3,0.2L43.5,28.9L43.5,28.9z M22.8,10.2c4.7,0,11,2,14.3,6.3c2.1,2.5,3.2,5.6,3.2,8.8
	c0,0.8,0,1.3,0.2,1.5c0.2,0.1,0.4,0.1,0.7,0.1c0.3,0,0.6,0,0.8,0.1c0.3,0.1,0.6,0.3,0.9,0.5c0.2,0.1,0.4,0.3,0.6,0.4l1.2-0.1
	c0.4,0,0.9-0.1,1.3-0.3c0-0.6,0-1.1-0.2-1.6c-0.1-0.1-0.6-0.2-0.8-0.2c-0.9-0.1-2.2-0.3-2.7-1.9c0-0.1-0.1-0.3-0.2-0.4
	c-0.2-0.3-0.3-0.7-0.3-1.1c0.1-1.1,1.1-1.3,1.8-1.5c0.4-0.1,0.8-0.2,1.1-0.5c0.1-0.3,0.1-0.7,0-1c-0.1-0.4-0.3-0.7-0.7-1
	c-0.2-0.1-0.5,0.1-0.9,0.3c-0.7,0.4-1.9,1-2.9-0.5c-1.5-2-0.7-2.8,0.2-3.6c0.5-0.4,0.8-0.6,0.8-1.1l-0.7-0.7
	c-0.3-0.3-0.5-0.6-0.8-0.8c-0.6,0.3-1.2,0.7-1.7,1.1c-0.4,0.5-1.2,0.6-1.7,0.2c0,0-0.1-0.1-0.1-0.1L36,12.9c-0.4-0.2-0.7-0.5-1-0.9
	c-0.3-0.8-0.2-1.6,0.2-2.3c0.2-0.5,0.5-1,0.3-1.3c-0.4-0.6-1-1-1.6-1.2c-0.1,0.1-0.1,0.2-0.2,0.2c-0.3,0.4-0.5,0.8-0.7,1.1
	c-0.8,1.3-1.1,1.5-2.5,0.9l-1-0.4c-1.1-0.4-1-1.6-0.9-2.4c0.1-1.2,0.1-1.6-0.5-1.8c-1-0.3-1.3-0.2-1.5-0.1s-0.2,0.4-0.2,0.8
	c-0.1,1-0.5,1.9-1.3,2.5c-0.1,0.1-0.2,0.1-0.3,0.1c-2.6,0.1-3-0.1-3.5-2c-0.1-0.4-0.3-0.9-0.5-1.5l0,0h-0.3c-0.7,0-1.5,0.1-1.8,0.5
	s-0.1,0.8,0.1,1.3c0.1,0.2,0.1,0.4,0.2,0.7c0.2,0.6,0,1.3-0.6,1.7c0.1,0.2,0.3,0.6,0.6,1c0.1,0.2,0.3,0.5,0.5,0.7
	C20.5,10.4,21.6,10.2,22.8,10.2z"/>
<path class="st3" d="M72.9,12.6h-8.1v23.1h-6.5V12.6h-8V7.4h22.6V12.6z"/>
<path class="st3" d="M70.7,25c0-1.9,0.4-3.9,1.2-5.6c0.7-1.6,1.9-2.9,3.4-3.8c1.6-0.9,3.3-1.4,5.1-1.3c2.7-0.1,5.3,0.9,7.1,2.9
	c1.7,2,2.6,4.6,2.6,8v0.2c0.2,2.8-0.8,5.6-2.6,7.8c-1.8,2-4.4,3-7.1,2.9c-2.6,0.1-5.1-0.9-6.9-2.7c-1.8-2-2.8-4.6-2.8-7.3L70.7,25z
	 M77,25.4c-0.1,1.5,0.2,3,0.9,4.3c0.5,0.9,1.5,1.4,2.6,1.4c2.2,0,3.4-1.8,3.4-5.4V25c0-3.8-1.2-5.7-3.4-5.7c-2.1,0-3.2,1.6-3.4,4.9
	L77,25.4z"/>
<path class="st3" d="M92.1,25c0-1.9,0.4-3.9,1.2-5.6c0.7-1.6,1.9-2.9,3.4-3.8c1.6-0.9,3.3-1.4,5.1-1.3c2.7-0.1,5.3,0.9,7.1,2.9
	c1.8,2.2,2.8,5.1,2.6,8v0.2c0.2,2.8-0.8,5.6-2.6,7.8c-3.8,3.8-10,3.9-13.9,0.2c-1.8-2-2.8-4.6-2.8-7.3L92.1,25z M98.3,25.4
	c-0.1,1.5,0.2,3,0.9,4.3c0.5,0.9,1.5,1.4,2.6,1.4c2.2,0,3.4-1.8,3.4-5.4V25c0-3.8-1.1-5.7-3.4-5.7c-2.1,0-3.2,1.6-3.4,4.9L98.3,25.4
	z"/>
<path class="st3" d="M120.8,35.7h-6.3V5.8h6.3V35.7z"/>
<path class="st4" d="M124.6,9.2c0-0.9,0.3-1.7,1-2.3c1.5-1.2,3.5-1.2,5,0c0.7,0.6,1,1.4,1,2.3c0,0.9-0.3,1.7-1,2.3
	c-1.5,1.2-3.5,1.2-5,0C124.9,10.9,124.6,10.1,124.6,9.2z M131.2,35.7H125V14.6h6.3L131.2,35.7z"/>
<path class="st4" d="M142.4,30.7h9.1v5.1h-17.1v-3.7l8.9-12.4h-8.5v-5.1h16.5v3.5L142.4,30.7z"/>
<path class="st4" d="M165.9,35.7c-0.3-0.6-0.5-1.2-0.6-1.9c-1.1,1.5-2.9,2.4-4.8,2.3c-1.8,0-3.5-0.6-4.8-1.8c-1.3-1.1-2-2.8-2-4.5
	c-0.1-2,0.8-4,2.4-5.2c1.6-1.2,3.9-1.8,7-1.8h1.9v-1.1c0-1.9-0.8-2.9-2.4-2.9s-2.2,0.8-2.2,2.3h-6.2c0-2,0.9-3.8,2.5-5
	c1.8-1.3,4.1-2,6.3-1.9c2.2-0.1,4.4,0.6,6.1,2c1.5,1.4,2.3,3.4,2.3,5.4V31c-0.1,1.5,0.2,3,0.9,4.4v0.3L165.9,35.7z M162,31.4
	c0.7,0,1.4-0.2,1.9-0.5c0.5-0.3,0.8-0.7,1.1-1.2v-3.4h-1.8c-2.2,0-3.3,1-3.3,3.1c0,0.5,0.2,1.1,0.6,1.5
	C160.9,31.3,161.5,31.5,162,31.4z"/>
<path class="st5" d="M60.4,41.9h-2.2v6.4H57v-6.4h-2.2v-1h5.6L60.4,41.9z"/>
<path class="st5" d="M72.2,44.8c0,0.7-0.1,1.3-0.4,1.9c-0.2,0.5-0.5,1-1,1.3c-0.9,0.6-2.1,0.6-3.1,0c-0.5-0.3-0.8-0.8-1-1.3
	c-0.3-0.6-0.4-1.2-0.4-1.9v-0.4c0-0.7,0.1-1.3,0.4-1.9c0.2-0.5,0.6-1,1-1.3c0.9-0.6,2.1-0.6,3.1,0c0.5,0.3,0.8,0.8,1,1.3
	c0.3,0.6,0.4,1.3,0.4,1.9L72.2,44.8z M70.9,44.4c0-0.7-0.1-1.3-0.4-1.9c-0.5-0.7-1.4-0.9-2.1-0.4c-0.2,0.1-0.3,0.2-0.4,0.4
	c-0.3,0.6-0.5,1.2-0.5,1.9v0.4c0,0.7,0.1,1.3,0.5,1.9c0.3,0.4,0.8,0.7,1.3,0.7c0.5,0,1-0.2,1.3-0.7c0.3-0.6,0.5-1.2,0.4-1.9
	L70.9,44.4z"/>
<path class="st5" d="M84.4,44.8c0,0.7-0.1,1.3-0.4,1.9c-0.2,0.5-0.5,1-1,1.3c-0.9,0.6-2.1,0.6-3.1,0c-0.4-0.3-0.8-0.8-1-1.3
	c-0.3-0.6-0.4-1.2-0.4-1.9v-0.5c0-0.7,0.1-1.3,0.4-1.9c0.2-0.5,0.5-1,1-1.3c0.9-0.6,2.1-0.6,3.1,0c0.4,0.3,0.8,0.8,1,1.3
	c0.3,0.6,0.4,1.3,0.4,1.9V44.8z M83.1,44.4c0-0.7-0.1-1.3-0.4-1.9c-0.3-0.4-0.8-0.7-1.3-0.7c-0.5,0-1,0.2-1.2,0.7
	c-0.3,0.6-0.5,1.2-0.5,1.9v0.4c0,0.7,0.1,1.3,0.5,1.9c0.3,0.4,0.8,0.7,1.3,0.7c0.5,0,1-0.2,1.3-0.7c0.3-0.6,0.5-1.2,0.4-1.9V44.4z"
	/>
<path class="st5" d="M92.1,47.3h3.2v1h-4.5v-7.4h1.2L92.1,47.3z"/>
<path class="st5" d="M105.3,46.4c0-0.3-0.1-0.6-0.3-0.8c-0.4-0.2-0.8-0.4-1.2-0.5c-0.5-0.1-0.9-0.4-1.4-0.6c-0.6-0.3-1-1-1-1.7
	c0-0.6,0.2-1.1,0.7-1.5c0.5-0.4,1.2-0.6,1.8-0.6c0.5,0,0.9,0.1,1.3,0.3c0.4,0.2,0.7,0.5,0.9,0.8c0.2,0.4,0.3,0.8,0.3,1.2h-1.2
	c0-0.3-0.1-0.7-0.3-0.9c-0.3-0.2-0.6-0.4-1-0.3c-0.3,0-0.7,0.1-0.9,0.3c-0.2,0.2-0.4,0.5-0.3,0.8c0,0.3,0.1,0.5,0.4,0.7
	c0.4,0.2,0.8,0.4,1.2,0.5c0.5,0.1,0.9,0.3,1.3,0.6c0.3,0.2,0.6,0.4,0.7,0.8c0.2,0.3,0.2,0.7,0.2,1c0,0.6-0.2,1.1-0.7,1.5
	c-0.5,0.4-1.2,0.6-1.8,0.5c-0.5,0-1-0.1-1.4-0.3c-0.4-0.2-0.8-0.5-1-0.8c-0.2-0.4-0.4-0.8-0.4-1.2h1.2c0,0.4,0.1,0.7,0.4,1
	c0.3,0.3,0.7,0.4,1.2,0.3c0.4,0,0.7-0.1,1-0.3C105.2,47,105.3,46.7,105.3,46.4z"/>
<path class="st5" d="M124.4,46.4c0-0.3-0.1-0.6-0.3-0.8c-0.4-0.2-0.8-0.4-1.2-0.5c-0.5-0.1-0.9-0.4-1.4-0.6c-0.6-0.3-1-1-1-1.7
	c0-0.6,0.2-1.1,0.7-1.5c0.5-0.4,1.2-0.6,1.8-0.6c0.5,0,0.9,0.1,1.3,0.3c0.4,0.2,0.7,0.5,0.9,0.8c0.2,0.4,0.3,0.8,0.3,1.2h-1.2
	c0-0.3-0.1-0.7-0.3-0.9c-0.3-0.2-0.6-0.4-1-0.3c-0.3,0-0.7,0.1-0.9,0.3c-0.2,0.2-0.3,0.5-0.3,0.8c0,0.3,0.1,0.5,0.4,0.7
	c0.4,0.2,0.8,0.4,1.2,0.5c0.5,0.1,0.9,0.3,1.3,0.6c0.3,0.2,0.6,0.4,0.7,0.8c0.2,0.3,0.2,0.7,0.2,1c0,0.6-0.2,1.1-0.7,1.5
	c-0.5,0.4-1.2,0.6-1.8,0.5c-0.5,0-1-0.1-1.4-0.3c-0.4-0.2-0.7-0.5-1-0.8c-0.2-0.4-0.4-0.8-0.4-1.2h1.2c0,0.4,0.1,0.7,0.4,1
	c0.3,0.3,0.7,0.4,1.2,0.3c0.4,0,0.7-0.1,1-0.3C124.4,47,124.5,46.7,124.4,46.4z"/>
<path class="st5" d="M137.2,41.9H135v6.4h-1.2v-6.4h-2.2v-1h5.6L137.2,41.9z"/>
<path class="st5" d="M149,44.8c0,0.7-0.1,1.3-0.4,1.9c-0.2,0.5-0.5,1-1,1.3c-0.5,0.3-1,0.5-1.5,0.5c-0.5,0-1.1-0.1-1.6-0.5
	c-0.4-0.3-0.8-0.8-1-1.3c-0.3-0.6-0.4-1.2-0.4-1.9v-0.4c0-0.7,0.1-1.3,0.4-1.9c0.2-0.5,0.5-1,1-1.3c0.9-0.6,2.1-0.6,3.1,0
	c0.4,0.3,0.8,0.8,1,1.3c0.3,0.6,0.4,1.3,0.4,1.9L149,44.8z M147.8,44.4c0-0.7-0.1-1.3-0.4-1.9c-0.5-0.7-1.4-0.9-2.1-0.4
	c-0.2,0.1-0.3,0.2-0.4,0.4c-0.3,0.6-0.5,1.2-0.5,1.9v0.4c0,0.7,0.1,1.3,0.5,1.9c0.5,0.7,1.4,0.9,2.1,0.4c0.2-0.1,0.3-0.2,0.4-0.4
	c0.3-0.6,0.5-1.2,0.4-1.9V44.4z"/>
<path class="st5" d="M158.1,45.4h-1.4v2.9h-1.2v-7.5h2.5c0.7,0,1.4,0.2,1.9,0.6c0.7,0.8,0.9,2,0.3,2.9c-0.2,0.4-0.6,0.6-1,0.8
	l1.6,3.1v0.1h-1.3L158.1,45.4z M156.7,44.4h1.3c0.4,0,0.7-0.1,1-0.3c0.2-0.2,0.4-0.6,0.4-0.9c0-0.3-0.1-0.7-0.3-0.9
	c-0.3-0.2-0.6-0.4-1-0.3h-1.3L156.7,44.4z"/>
<path class="st5" d="M171.2,45h-2.9v2.3h3.4v1h-4.6v-7.5h4.6v1h-3.4V44h2.9V45z"/>
</svg>
